<svg id="Layer_1" data-name="Layer 1" xmlns="http://www.w3.org/2000/svg" viewBox="0 0 512 512"><defs><style>.cls-1{fill:#fff;}</style></defs><title>Artboard 1</title><path id="github-2-circle-outline-icon" class="cls-1" d="M256,90a166,166,0,1,1-117.38,48.62A164.92,164.92,0,0,1,256,90m0-40C142.23,50,50,142.23,50,256s92.23,206,206,206,206-92.23,206-206S369.77,50,256,50ZM391.25,266.53l.24-2.48a255,255,0,0,0-43.93-.47,80.94,80.94,0,0,0,3.43-25.1c-.19-20.07-6.88-35.69-17.39-48.66,2-12.22.5-24.43-3.31-36.65a80.13,80.13,0,0,0-40.59,14.7c-22.5-4.56-45-4.85-67.5,0-14-9.48-27.83-14.13-41.41-14.7-4,13.46-4.65,26.72-1.24,39.76-11.85,12.57-16.37,27.83-16.15,44.72a78.81,78.81,0,0,0,4.37,25.89,255.51,255.51,0,0,0-43.24.52l.24,2.48a252.53,252.53,0,0,1,44-.44c.53,1.28,1.06,2.55,1.66,3.77A159.46,159.46,0,0,0,127.75,274l.59,2.41c13.31-3.27,27.57-4.59,43.49-4.05,10.53,18.7,30.79,29.69,60.31,33.18-6.86,5.57-10.54,12.14-11.49,19.57H205c-21,0-26.71-26.77-48.46-24.12,21.09,10.46,16.88,43.9,50.63,43.9h14.18v30.65a11.43,11.43,0,0,1-5.49,10.56c12.09,1.22,21.17-4.81,21.17-12.22V333.39c0-3.61,3.78-3.89,3.78-3.89v47.3c.16,4.71-2.13,7.38-4.56,9.94,10.65.42,20.67-1.7,21.12-10.77V330.7c0-2.28,3.73-2.33,3.73,0v43.14c.11,7.65,6.71,13.85,20.7,12.89-3.74-3-4.89-6.06-4.89-10.47V329.5a3.63,3.63,0,0,1,3.86,3.89v39.45c0,8.78,10.54,12.4,22.57,12.06-3.94-3-6.61-6.47-6.62-11.18V326.27c-.41-7-3.24-13.55-8.8-19.67,27-4.14,46.42-14.91,56.1-34.21,16-.55,30.27.77,43.61,4l.59-2.41a159.81,159.81,0,0,0-43-4.16c.54-1.23,1.08-2.46,1.55-3.75A252.24,252.24,0,0,1,391.25,266.53ZM166,305c-.66,0-1.2-.38-1.2-.85s.54-.85,1.2-.85,1.2.38,1.2.85S166.65,305,166,305Zm3.78,2.58c-.74,0-1.34-.42-1.34-.95s.6-.95,1.34-.95,1.33.42,1.33.95S170.5,307.59,169.76,307.59Zm3.83,3.35c-.87,0-1.57-.5-1.57-1.11s.7-1.11,1.57-1.11,1.57.5,1.57,1.11S174.46,310.94,173.6,310.94Zm3.73,4c-1,0-1.83-.58-1.83-1.3s.82-1.3,1.83-1.3,1.83.58,1.83,1.3S178.34,315,177.32,315Zm4.1,4.55c-1.12,0-2-.65-2-1.44s.91-1.44,2-1.44,2,.65,2,1.44S182.55,319.5,181.43,319.5Zm4.75,4.61c-1.25,0-2.26-.72-2.26-1.6s1-1.6,2.26-1.6,2.26.72,2.26,1.6S187.43,324.12,186.18,324.12Zm6.43,4.39c-1.39,0-2.51-.8-2.51-1.78s1.12-1.78,2.51-1.78,2.51.8,2.51,1.78S194,328.51,192.61,328.51Zm8,2.35c-1.39,0-2.51-.8-2.51-1.78s1.13-1.78,2.51-1.78,2.51.8,2.51,1.78S202,330.86,200.57,330.86Zm8.4.27c-1.39,0-2.51-.8-2.51-1.78s1.12-1.78,2.51-1.78,2.51.8,2.51,1.78S210.35,331.13,209,331.13Zm8.29.16c-1.39,0-2.51-.8-2.51-1.78s1.13-1.78,2.51-1.78,2.51.8,2.51,1.78S218.65,331.29,217.26,331.29Z"/></svg>